<?xml version="1.0" encoding="utf-8"?>
<!-- Generator: Adobe Illustrator 22.0.1, SVG Export Plug-In . SVG Version: 6.00 Build 0)  -->
<svg version="1.1" id="Layer_1" xmlns="http://www.w3.org/2000/svg" xmlns:xlink="http://www.w3.org/1999/xlink" x="0px" y="0px"
	 viewBox="0 0 20 20" style="enable-background:new 0 0 20 20;" xml:space="preserve">
<style type="text/css">
	.st0{clip-path:url(#SVGID_2_);}
	.st1{fill:none;}
	.st2{fill:#383838;}
</style>
<g>
	<defs>
		<rect id="SVGID_1_" x="2" width="16" height="20"/>
	</defs>
	<clipPath id="SVGID_2_">
		<use xlink:href="#SVGID_1_"  style="overflow:visible;"/>
	</clipPath>
	<g id="calculator_line_icon" class="st0">
		<g id="calculator" transform="translate(-0.5 -0.5)">
			<g id="Path_92" transform="translate(0 0)">
				<path class="st1" d="M17.7,20.5H3.3c-0.4,0-0.8-0.3-0.8-0.7c0,0,0-0.1,0-0.1V1.3c0-0.4,0.3-0.8,0.7-0.8c0,0,0.1,0,0.1,0h14.3
					c0.4,0,0.8,0.3,0.8,0.7c0,0,0,0.1,0,0.1v18.3C18.5,20.1,18.2,20.5,17.7,20.5C17.7,20.5,17.7,20.5,17.7,20.5z"/>
				<path class="st2" d="M17.5,19.5v-18h-14v18H17.5 M17.7,20.5H3.3c-0.5,0-0.8-0.3-0.8-0.8V1.3c0-0.5,0.3-0.8,0.8-0.8h14.3
					c0.5,0,0.8,0.3,0.8,0.8v18.3C18.5,20.2,18.2,20.5,17.7,20.5z"/>
			</g>
			<g id="Group_53" transform="translate(3.868 3.667)">
				<ellipse id="Ellipse_32" class="st2" cx="10" cy="12.4" rx="1.3" ry="1.3"/>
				<ellipse id="Ellipse_33" class="st2" cx="6.6" cy="12.4" rx="1.3" ry="1.3"/>
				<ellipse id="Ellipse_34" class="st2" cx="3.3" cy="12.4" rx="1.3" ry="1.3"/>
				<path id="Path_93" class="st2" d="M8.7,9.1c0-0.7,0.6-1.3,1.2-1.3c0.7,0,1.3,0.6,1.3,1.2s-0.6,1.3-1.2,1.3c0,0,0,0,0,0
					C9.3,10.3,8.8,9.8,8.7,9.1z"/>
				<path id="Path_94" class="st2" d="M5.4,9.1c0-0.7,0.6-1.3,1.2-1.3c0.7,0,1.3,0.6,1.3,1.2s-0.6,1.3-1.2,1.3c0,0,0,0,0,0
					C5.9,10.3,5.4,9.8,5.4,9.1z"/>
				<path id="Path_95" class="st2" d="M2,9.1c0-0.7,0.6-1.3,1.2-1.3s1.3,0.6,1.3,1.2c0,0.7-0.6,1.3-1.2,1.3c0,0,0,0,0,0
					C2.6,10.3,2,9.8,2,9.1z"/>
				<path id="Path_96" class="st2" d="M8.7,5.8c0-0.7,0.6-1.3,1.2-1.3c0.7,0,1.3,0.6,1.3,1.2C11.3,6.4,10.7,7,10,7c0,0,0,0,0,0
					C9.3,7,8.8,6.4,8.7,5.8z"/>
				<path id="Path_97" class="st2" d="M5.4,5.8c0-0.7,0.6-1.3,1.2-1.3c0.7,0,1.3,0.6,1.3,1.2C7.9,6.4,7.3,7,6.6,7c0,0,0,0,0,0
					C5.9,7,5.4,6.4,5.4,5.8z"/>
				<path id="Path_98" class="st2" d="M2,5.8c0-0.7,0.6-1.3,1.2-1.3c0.7,0,1.3,0.6,1.3,1.2S4,7,3.3,7c0,0,0,0,0,0C2.6,7,2,6.4,2,5.8
					z"/>
				<rect id="Rectangle_16" x="2" y="0" class="st2" width="9.3" height="2.5"/>
			</g>
		</g>
	</g>
</g>
</svg>
