<svg version="1.1" id="Layer_1" xmlns="http://www.w3.org/2000/svg" xmlns:xlink="http://www.w3.org/1999/xlink" x="0" y="0" viewBox="0 0 20 20" xml:space="preserve"><style>.st2{fill:#383838}</style><defs><path id="SVGID_1_" d="M2 0h16v20H2z"/></defs><clipPath id="SVGID_2_"><use xlink:href="#SVGID_1_" overflow="visible"/></clipPath><g id="calculator_line_icon" clip-path="url(#SVGID_2_)"><g id="calculator" transform="translate(-.5 -.5)"><g id="Path_92"><path d="M17.7 20.5H3.3c-.4 0-.8-.3-.8-.7V1.3c0-.4.3-.8.7-.8h14.4c.4 0 .8.3.8.7v18.4c.1.5-.2.9-.7.9z" fill="none"/><path class="st2" d="M17.5 19.5v-18h-14v18h14m.2 1H3.3c-.5 0-.8-.3-.8-.8V1.3c0-.5.3-.8.8-.8h14.3c.5 0 .8.3.8.8v18.3c.1.6-.2.9-.7.9z"/></g><g id="Group_53" transform="translate(3.868 3.667)"><circle id="Ellipse_32" class="st2" cx="10" cy="12.4" r="1.3"/><circle id="Ellipse_33" class="st2" cx="6.6" cy="12.4" r="1.3"/><circle id="Ellipse_34" class="st2" cx="3.3" cy="12.4" r="1.3"/><path id="Path_93" class="st2" d="M8.7 9.1c0-.7.6-1.3 1.2-1.3.7 0 1.3.6 1.3 1.2s-.6 1.3-1.2 1.3c-.7 0-1.2-.5-1.3-1.2z"/><path id="Path_94" class="st2" d="M5.4 9.1c0-.7.6-1.3 1.2-1.3.7 0 1.3.6 1.3 1.2s-.6 1.3-1.2 1.3c-.8 0-1.3-.5-1.3-1.2z"/><path id="Path_95" class="st2" d="M2 9.1c0-.7.6-1.3 1.2-1.3s1.3.6 1.3 1.2c0 .7-.6 1.3-1.2 1.3-.7 0-1.3-.5-1.3-1.2z"/><path id="Path_96" class="st2" d="M8.7 5.8c0-.7.6-1.3 1.2-1.3.7 0 1.3.6 1.3 1.2.1.7-.5 1.3-1.2 1.3s-1.2-.6-1.3-1.2z"/><path id="Path_97" class="st2" d="M5.4 5.8c0-.7.6-1.3 1.2-1.3.7 0 1.3.6 1.3 1.2 0 .7-.6 1.3-1.3 1.3-.7 0-1.2-.6-1.2-1.2z"/><path id="Path_98" class="st2" d="M2 5.8c0-.7.6-1.3 1.2-1.3.7 0 1.3.6 1.3 1.2S4 7 3.3 7 2 6.4 2 5.8z"/><path id="Rectangle_16" class="st2" d="M2 0h9.3v2.5H2z"/></g></g></g></svg>