<svg viewBox="0 0 30 30" xmlns="http://www.w3.org/2000/svg" xmlns:xlink="http://www.w3.org/1999/xlink"><style>:root&gt;svg{display:none}:root&gt;svg:target{display:block}</style><svg viewBox="0 0 30 30" id="amn" xmlns="http://www.w3.org/2000/svg"><defs><style>.aa{fill:#ec1c24}.ab{fill:#fff}</style></defs><path class="aa" d="M2.641 20.405h25.354a10.86 10.86 0 00.746-2.368H1.895a14.472 14.472 0 00.746 2.368zm12.664 8.174a13.675 13.675 0 007.106-1.895H8.2a13.28 13.28 0 007.105 1.895z"/><path class="ab" d="M15.461 15.808H1.579c.149.789.149 1.579.3 2.368h26.717a11.327 11.327 0 00.3-2.368z"/><path class="aa" d="M5.571 24.316h19.185a27.078 27.078 0 001.771-2.211H3.948a8.238 8.238 0 001.623 2.211z"/><path class="ab" d="M3.872 22.485h22.729a11.53 11.53 0 001.188-2.368H2.684a8.55 8.55 0 001.188 2.368zm4.727 4.198h13.117a14.012 14.012 0 002.915-2.368H5.684a10.3 10.3 0 002.915 2.368z"/><path class="aa" d="M9.948 11.488H28.58a15.935 15.935 0 00-1.106-2.368H9.948zm-7.106 4.463h26.062c0-.316.149-.789.149-1.263a4.148 4.148 0 00-.149-1.263H2.842zm9.79-8.531h13.895a33.494 33.494 0 00-2.369-2.368H12.632zm9.252-4.736A18.478 18.478 0 0014.147.947v1.737z"/><path class="ab" d="M15.056 5.052h9.789a15.015 15.015 0 00-3.157-2.368h-6.632zm-1.95 4.207H27.79a18.8 18.8 0 00-1.421-2.368H13.106zm.473 2.09v2.368h15.474a14.011 14.011 0 01-.316-2.368z"/><path d="M16.264 16.736V.947C7.738.947.001 9.158 1.58 16.736z" fill="#094ca0"/><path class="ab" d="M8.914 2.842l-.158.947h-.947l.632.474-.158.947.632-.474.789.474-.316-.947.789-.474h-.789zm4.314 0l-.316.947h-.789l.632.474-.316.947.789-.474.632.474-.316-.947.789-.474h-.789zM6.353 7.313l.632-.632.789.632-.316-.947.632-.316h-.789l-.316-.789-.158.789h-.948l.789.316zm4.153 0l.789-.632.632.632-.316-.947.789-.316h-.947l-.158-.789-.316.789h-.789l.632.316zm-5.611.175l-.158.947H3.79l.632.316-.158.947.632-.474.789.474-.316-.947.789-.316h-.947zm4.019 0l-.158.947h-.947l.632.316-.158.947.632-.474.789.474-.316-.947.789-.316h-.789zm4.314 0l-.316.947h-.789l.632.316-.316.947.789-.474.632.474-.316-.947.789-.316h-.789zM8.09 10.502h-.789l-.316-.632-.158.632h-.948l.789.632-.316.789.632-.474.789.474-.316-.789zm4.311 0h-.947l-.158-.632-.316.632h-.79l.632.632-.316.789.789-.474.632.474-.316-.789zm-7.19 2.538l-.316-.947-.158.947H3.79l.632.474-.158.947.632-.632.789.632-.316-.947.789-.474zm4.177 0l-.474-.947-.158.947h-.947l.632.474-.158.947.632-.632.789.632-.316-.947.789-.474zm4.156 0l-.316-.947-.316.947h-.789l.632.474-.316.947.789-.632.632.632-.316-.947.789-.474z"/><path d="M15 30a15 15 0 1115-15 15.044 15.044 0 01-15 15zm0-28.5A13.5 13.5 0 1028.5 15 13.54 13.54 0 0015 1.5z" fill="#d5d6d5"/></svg><svg viewBox="0 0 30 30" id="anglia" xmlns="http://www.w3.org/2000/svg"><defs><radialGradient id="bb" cx="-94.158" cy="99.894" r=".001" gradientTransform="matrix(.952 0 0 1 -4.483 -.001)" gradientUnits="objectBoundingBox"><stop offset="0" stop-color="#fff"/><stop offset=".781" stop-color="#fff"/><stop offset=".822" stop-color="#f9f8f8"/><stop offset=".885" stop-color="#e9e6e3"/><stop offset=".96" stop-color="#cec8c2"/><stop offset="1" stop-color="#beb6ad"/></radialGradient><clipPath id="ba"><path d="M24.708 10.5a14.278 14.278 0 103.44.449 14.5 14.5 0 00-3.44-.449" transform="translate(-10.504 -10.5)"/></clipPath></defs><g clip-path="url(#ba)"><path d="M-.706.79h31.412v29.917H-.706z" fill="url(#bb)"/></g><path d="M1.238 11.56a14.185 14.185 0 1110.321 17.2 14.136 14.136 0 01-10.321-17.2" fill="#24356b"/><path d="M25.02 4.982l-5.684 3.739V1.542c-.3-.15-.6-.15-.9-.3a15.128 15.128 0 00-7.776.3v7.327L4.981 5.131a14.133 14.133 0 00-3.14 4.636l1.5 1.047h-1.8c-.15.3-.15.6-.3.9a15.778 15.778 0 00.3 7.926h1.794l-1.5 1.047a14.133 14.133 0 003.146 4.634l5.533-3.738v6.879a9.53 9.53 0 001.047.3 15.128 15.128 0 007.776-.3v-7.181l5.683 3.74a14.133 14.133 0 003.14-4.636l-1.5-1.047h1.794c.15-.3.15-.748.3-1.047a15.2 15.2 0 00-.3-7.776h-1.94l1.5-1.047a13.854 13.854 0 00-2.994-4.486" fill="#f4f1ee"/><path d="M8.418 10.661l-5.235-3.44c-.3.6-.6 1.047-.9 1.645l2.692 1.8zm18.4-3.44a5.857 5.857 0 00-1.2-1.5l-6.282 4.188v.9h2.094zM3.186 22.924a5.857 5.857 0 001.2 1.5l6.282-4.188v-.748h-2.25zm25.878-10.471H17.546V.935a14.514 14.514 0 00-5.086 0v11.518H1.092a14.516 14.516 0 000 5.086H12.46v11.369a14.514 14.514 0 005.086 0V17.539h11.372a11.683 11.683 0 00.15-5.086m-7.479 7.03l5.235 3.44a8.935 8.935 0 00.9-1.645l-2.543-1.8z" fill="#e42918"/><path d="M19.334 3.158v.947c0-.158.158-.316.158-.474 0-.316 0-.474-.158-.474" fill="#333a63"/><path d="M15 30a15 15 0 1115-15 15.044 15.044 0 01-15 15zm0-28.5A13.5 13.5 0 1028.5 15 13.54 13.54 0 0015 1.5z" fill="#d5d6d5"/></svg><svg version="1.1" id="calc" x="0" y="0" viewBox="0 0 20 20" xml:space="preserve" xmlns="http://www.w3.org/2000/svg"><style>.cst2{fill:#383838}</style><defs><path id="cSVGID_1_" d="M2 0h16v20H2z"/></defs><clipPath id="cSVGID_2_"><use xlink:href="#cSVGID_1_" overflow="visible"/></clipPath><g id="ccalculator_line_icon" clip-path="url(#cSVGID_2_)"><g id="ccalculator" transform="translate(-.5 -.5)"><g id="cPath_92"><path d="M17.7 20.5H3.3c-.4 0-.8-.3-.8-.7V1.3c0-.4.3-.8.7-.8h14.4c.4 0 .8.3.8.7v18.4c.1.5-.2.9-.7.9z" fill="none"/><path class="cst2" d="M17.5 19.5v-18h-14v18h14m.2 1H3.3c-.5 0-.8-.3-.8-.8V1.3c0-.5.3-.8.8-.8h14.3c.5 0 .8.3.8.8v18.3c.1.6-.2.9-.7.9z"/></g><g id="cGroup_53" transform="translate(3.868 3.667)"><circle id="cEllipse_32" class="cst2" cx="10" cy="12.4" r="1.3"/><circle id="cEllipse_33" class="cst2" cx="6.6" cy="12.4" r="1.3"/><circle id="cEllipse_34" class="cst2" cx="3.3" cy="12.4" r="1.3"/><path id="cPath_93" class="cst2" d="M8.7 9.1c0-.7.6-1.3 1.2-1.3.7 0 1.3.6 1.3 1.2s-.6 1.3-1.2 1.3c-.7 0-1.2-.5-1.3-1.2z"/><path id="cPath_94" class="cst2" d="M5.4 9.1c0-.7.6-1.3 1.2-1.3.7 0 1.3.6 1.3 1.2s-.6 1.3-1.2 1.3c-.8 0-1.3-.5-1.3-1.2z"/><path id="cPath_95" class="cst2" d="M2 9.1c0-.7.6-1.3 1.2-1.3s1.3.6 1.3 1.2c0 .7-.6 1.3-1.2 1.3-.7 0-1.3-.5-1.3-1.2z"/><path id="cPath_96" class="cst2" d="M8.7 5.8c0-.7.6-1.3 1.2-1.3.7 0 1.3.6 1.3 1.2.1.7-.5 1.3-1.2 1.3s-1.2-.6-1.3-1.2z"/><path id="cPath_97" class="cst2" d="M5.4 5.8c0-.7.6-1.3 1.2-1.3.7 0 1.3.6 1.3 1.2 0 .7-.6 1.3-1.3 1.3-.7 0-1.2-.6-1.2-1.2z"/><path id="cPath_98" class="cst2" d="M2 5.8c0-.7.6-1.3 1.2-1.3.7 0 1.3.6 1.3 1.2S4 7 3.3 7 2 6.4 2 5.8z"/><path id="cRectangle_16" class="cst2" d="M2 0h9.3v2.5H2z"/></g></g></g></svg><svg viewBox="0 0 30 30" id="china" xmlns="http://www.w3.org/2000/svg"><g transform="translate(.789 .789)"><circle cx="14.211" cy="14.211" r="14.211" fill="#ec1c24"/><path d="M7.105 12.564l2.526 1.895-.789-2.842 2.368-2.053H8.053l-.948-2.842-.947 2.842h-3l2.526 2.053-.947 2.842zm10.263 1.895l.789.632-.316-1.105.789-.474h-.947l-.316-.947-.316.947h-.946l.789.474-.316 1.105zm-3.158 2.842l.632.947v-1.105l.947-.158-.947-.474v-.947l-.474.789-.947-.316.474.789-.632.789zm3.474-7.263l.947.158-.632-.632.316-.947-.789.474-.789-.789.158.947-.789.474.947.316.158.947zm-2.842-3l1.105-.158L15 6.406V5.301l-.632.947-.789-.474.316.789-.632.789 1.105-.158.474.789z" fill="#ffd900"/></g><path d="M30 15A15 15 0 1115 0a15.044 15.044 0 0115 15zM1.5 15A13.5 13.5 0 1015 1.5 13.54 13.54 0 001.5 15z" fill="#d5d6d5"/></svg><svg viewBox="0 0 30 30" id="dubai" xmlns="http://www.w3.org/2000/svg"><path d="M1.579 10.357zm26.842-.265l-19.263.158v9.789h19.263a15.9 15.9 0 00.789-4.895 16.946 16.946 0 00-.789-5.052zM1.579 19.476v.158z" fill="#fff"/><path d="M9.158 10.894h19.263v-.158A14.918 14.918 0 0014.211.789a13.676 13.676 0 00-5.053.947z" fill="#1c702e"/><path d="M9.158 28.263a13.566 13.566 0 005.053.789 14.918 14.918 0 0014.21-9.947H9.158zM1.579 19.62c0 .158.158.158.158.316a.551.551 0 01-.158-.316z" fill="#0a0a0a"/><path d="M10.737 10.37V1.578a15.034 15.034 0 00-9.158 8.643.149.149 0 01-.158.149 13.053 13.053 0 000 8.941v.149c0 .149.158.149.158.3a15.135 15.135 0 009 8.345V10.37z" fill="#f60123"/><path d="M30 15A15 15 0 1115 0a15.044 15.044 0 0115 15zM1.5 15A13.5 13.5 0 1015 1.5 13.54 13.54 0 001.5 15z" fill="#d5d6d5"/></svg><svg viewBox="0 0 30 30" id="germany" xmlns="http://www.w3.org/2000/svg"><path d="M1.087 20.21h27.988a40.484 40.484 0 000-10.421H1.087a40.479 40.479 0 000 10.421z" fill="#d00"/><path d="M1.263 10.579h27.474C26.497 4.421 21.719.316 15 .316S3.353 4.579 1.263 10.579z"/><path d="M28.737 19.421H1.105c2.24 6 7.169 10.421 13.89 10.421s11.651-4.263 13.742-10.421z" fill="#ffce00"/><path d="M15 30a15 15 0 1115-15 15.044 15.044 0 01-15 15zm0-28.5A13.5 13.5 0 1028.5 15 13.54 13.54 0 0015 1.5z" fill="#d5d6d5"/></svg><svg viewBox="0 0 30 30" id="italy" xmlns="http://www.w3.org/2000/svg"><path d="M20.21 28.917V.929a40.485 40.485 0 00-10.421 0v27.834c1.737.598 8.842.598 10.421.154z" fill="#fff"/><path d="M10.579 28.737V1.263C4.421 3.503.316 8.281.316 15s4.263 11.646 10.263 13.737z" fill="#259346"/><path d="M19.421 1.263v27.632c6-2.24 10.421-7.169 10.421-13.89S25.579 3.354 19.421 1.263z" fill="#ec2227"/><path d="M30 15A15 15 0 1115 0a15.044 15.044 0 0115 15zM1.5 15A13.5 13.5 0 1015 1.5 13.54 13.54 0 001.5 15z" fill="#d5d6d5"/></svg><svg viewBox="0 0 30 30" id="rd" xmlns="http://www.w3.org/2000/svg"><path d="M1.087 20.21h27.988a40.484 40.484 0 000-10.421H1.087a40.479 40.479 0 000 10.421z" fill="#0b4f9f"/><path d="M1.263 10.579h27.474C26.497 4.421 21.719.316 15 .316S3.353 4.579 1.263 10.579z" fill="#fff"/><path d="M28.737 19.421H1.105c2.24 6 7.169 10.421 13.89 10.421s11.651-4.263 13.742-10.421z" fill="#ec2227"/><path d="M15 30a15 15 0 1115-15 15.044 15.044 0 01-15 15zm0-28.5A13.5 13.5 0 1028.5 15 13.54 13.54 0 0015 1.5z" fill="#d5d6d5"/></svg></svg>