<svg viewBox="0 0 100 100" xmlns="http://www.w3.org/2000/svg" xmlns:xlink="http://www.w3.org/1999/xlink"><style>:root&gt;svg{display:none}:root&gt;svg:target{display:block}</style><svg viewBox="0 0 26 17" id="plane" xmlns="http://www.w3.org/2000/svg"><path fill="none" opacity=".39" d="M0 0h26v17H0z"/><path d="M21.675 2.681c.745-.742 1.7-1.8 1.171-2.44s-1.81.106-2.662.849c-.745.742-2.875 2.545-2.875 2.545l-3.088-.742s.639-.53.852-.742a.593.593 0 000-.955.838.838 0 00-1.171 0c-.426.318-1.491 1.273-1.491 1.273l-4.578-.955-1.81 1.485 7.773 3.394s-2.236 1.909-3.194 2.864a12.562 12.562 0 00-1.7 1.909l-3.73-.636-1.171.955 3.727 1.8L9.109 17l1.171-.955-.213-3.712a11.927 11.927 0 002.242-1.483c.958-.849 3.194-2.864 3.194-2.864l2.662 7.743 1.7-1.485-.532-4.455s1.171-.955 1.491-1.273c.426-.318.532-.742.106-1.061s-.639-.318-.958 0c-.213.212-.852.742-.852.742l-.426-3.077c.106 0 2.236-1.803 2.981-2.439z" fill="#383838"/></svg><svg viewBox="0 0 26 17" id="ship" xmlns="http://www.w3.org/2000/svg"><path fill="none" opacity=".39" d="M0 0h26v17H0z"/><path d="M20.616 7.429H17.08c-.1 0-.312-.107-.312-.214L16.04 5.5h-.832V2.179A.227.227 0 0015 1.965h-1.247a.227.227 0 00-.208.214V5.5h-.728V1.214A.227.227 0 0012.609 1h-1.04a.227.227 0 00-.208.214V5.5l-.208.429H9.905c-.1 0-.208.107-.312.107l-.831 1.285a3.231 3.231 0 01-.728.107H4.498a.375.375 0 00-.312.107L2.419 9.786a.375.375 0 01-.312.107H.547a.518.518 0 00-.521.643l1.352 5.036c.1.214.208.429.52.429h18.928c.1 0 .416-.107.416-.214l4.679-6.321c.208-.429 0-.964-.416-.964h-3.537c-.1 0-.208 0-.208-.107l-.934-.859a.36.36 0 01-.21-.107z" fill="#383838"/></svg><svg viewBox="0 0 100 100" id="truck" xmlns="http://www.w3.org/2000/svg"><path fill="none" pointer-events="none" d="M0 0h100v100H0z"/><path fill="none" pointer-events="none" d="M-9.636-9.636h119.272v119.272H-9.636z"/><path d="M-13.198 8.851h126.397V91.01H-13.198V8.851z" fill="none" pointer-events="none"/><path d="M7.657 10.115h82.158v82.158H7.657V10.115z" data-name="Rectangle 2730" fill="none"/><path d="M7.657 20.385h45.53V53.17H7.657V20.385z" data-name="Rectangle 2729" fill="#383838"/><path data-name="Path 4179" d="M56.802 56.299H7.657v9.616h9.037a9.637 9.637 0 1018.486 0h30.902a9.637 9.637 0 1018.553 0h5.18V56.3h-1.074v-8.28a2.428 2.428 0 00-.023-.337l-2.243-15.98a2.42 2.42 0 00-2.395-2.082H59.211a2.418 2.418 0 00-2.42 2.42zm13.86 12.22a4.695 4.695 0 114.695 4.696 4.7 4.7 0 01-4.695-4.693zm-9.023-34.066h20.334l1.738 12.37H69.128l-7.489-7.488zM30.635 68.626a4.695 4.695 0 11-4.696-4.695 4.701 4.701 0 014.696 4.695z" fill="#383838"/></svg></svg>