<svg viewBox="0 0 1167 700" xmlns="http://www.w3.org/2000/svg" xmlns:xlink="http://www.w3.org/1999/xlink"><style>:root&gt;svg{display:none}:root&gt;svg:target{display:block}</style><svg viewBox="0 0 1167 700" id="arm" xmlns="http://www.w3.org/2000/svg"><path fill="none" pointer-events="none" d="M0 2h1167v700H0z"/><switch transform="translate(-1420.027 -3251.836) scale(4.66667)"><g><path d="M294.5 696.5h300v150h-300v-150z" fill="#D90012"/><path d="M294.5 746.5h300v50h-300v-50z" fill="#0033A0"/><path d="M294.5 796.5h300v50h-300v-50z" fill="#F2A800"/></g></switch></svg><svg viewBox="0 0 1167 700" id="rus" xmlns="http://www.w3.org/2000/svg"><path fill="none" pointer-events="none" d="M0 0h1167v700H0z"/><switch transform="matrix(3.89 0 0 3.5 -562.565 -2437.276)"><g><path d="M144.5 696.5h300v100h-300v-100z" fill="#FFF"/><path d="M144.5 796.5h300v100h-300v-100z" fill="#D52B1E"/><path d="M144.5 763.166h300v66.667h-300v-66.667z" fill="#0039A6"/></g></switch></svg><svg viewBox="0 0 1167 700" id="usa" xmlns="http://www.w3.org/2000/svg"><path fill="none" pointer-events="none" d="M0 0h1167v700H0z"/><switch transform="translate(-1385.523 -3186.595) scale(4.44078)"><g><path d="M312 717.552h300v157.895H312V717.552z" fill="#FFF"/><path d="M312 717.552h300v12.146H312v-12.146zm0 24.292h300v12.146H312v-12.146zm0 24.291h300v12.146H312v-12.146zm0 24.292h300v12.146H312v-12.146zm0 24.291h300v12.146H312v-12.146zm0 24.292h300v12.146H312V839.01zm0 24.291h300v12.146H312v-12.146z" fill="#B22234"/><path d="M312 717.552h120v85.02H312v-85.02z" fill="#3C3B6E"/><path d="M317.638 724.454l2.859 2.077-1.092 3.361 2.858-2.077 2.859 2.077-1.092-3.361 2.858-2.077h-3.533l-1.092-3.36-1.092 3.36zm19.895 0l2.858 2.077-1.092 3.361 2.859-2.077 2.859 2.077-1.092-3.361 2.858-2.077h-3.533l-1.092-3.36-1.092 3.36zm19.895 0l2.858 2.077-1.092 3.361 2.859-2.077 2.858 2.077-1.092-3.361 2.859-2.077h-3.533l-1.092-3.36-1.092 3.36zm19.895 0l2.858 2.077-1.092 3.361 2.859-2.077 2.858 2.077-1.092-3.361 2.859-2.077h-3.534l-1.091-3.36-1.092 3.36zm19.894 0l2.859 2.077-1.092 3.361 2.858-2.077 2.859 2.077-1.092-3.361 2.858-2.077h-3.533l-1.092-3.36-1.092 3.36zm19.895 0l2.858 2.077-1.092 3.361 2.859-2.077 2.858 2.077-1.092-3.361 2.859-2.077h-3.533l-1.092-3.36-1.092 3.36zm-89.527 8.527l2.859 2.077-1.092 3.36 2.859-2.077 2.858 2.077-1.092-3.36 2.859-2.077h-3.534l-1.091-3.361-1.092 3.361zm19.895 0l2.859 2.077-1.092 3.36 2.858-2.077 2.859 2.077-1.092-3.36 2.858-2.077h-3.533l-1.092-3.361-1.092 3.361zm19.895 0l2.859 2.077-1.092 3.36 2.858-2.077 2.859 2.077-1.092-3.36 2.858-2.077h-3.533L372 729.62l-1.092 3.361zm19.895 0l2.858 2.077-1.092 3.36 2.859-2.077 2.858 2.077-1.092-3.36 2.859-2.077h-3.533l-1.092-3.361-1.092 3.361zm19.894 0l2.859 2.077-1.092 3.36 2.858-2.077 2.859 2.077-1.092-3.36 2.858-2.077h-3.533l-1.092-3.361-1.091 3.361zm-89.526 8.526l2.859 2.077-1.092 3.361 2.858-2.077 2.859 2.077-1.092-3.361 2.858-2.077h-3.533l-1.092-3.36-1.092 3.36zm19.895 0l2.858 2.077-1.092 3.361 2.859-2.077 2.859 2.077-1.092-3.361 2.858-2.077h-3.533l-1.092-3.36-1.092 3.36zm19.895 0l2.858 2.077-1.092 3.361 2.859-2.077 2.858 2.077-1.092-3.361 2.859-2.077h-3.533l-1.092-3.36-1.092 3.36zm19.895 0l2.858 2.077-1.092 3.361 2.859-2.077 2.858 2.077-1.092-3.361 2.859-2.077h-3.534l-1.091-3.36-1.092 3.36zm19.894 0l2.859 2.077-1.092 3.361 2.858-2.077 2.859 2.077-1.092-3.361 2.858-2.077h-3.533l-1.092-3.36-1.092 3.36zm19.895 0l2.858 2.077-1.092 3.361 2.859-2.077 2.858 2.077-1.092-3.361 2.859-2.077h-3.533l-1.092-3.36-1.092 3.36zm-89.281 8.555l2.858 2.077-1.091 3.36 2.858-2.077 2.859 2.077-1.092-3.361 2.858-2.076h-3.533l-1.092-3.361-1.092 3.361zm19.895 0l2.858 2.077-1.092 3.36 2.859-2.077 2.858 2.077-1.092-3.361 2.859-2.076h-3.533l-1.092-3.361-1.092 3.361zm19.895 0l2.858 2.077-1.092 3.36 2.859-2.077 2.858 2.077-1.092-3.361 2.859-2.076h-3.534l-1.091-3.361-1.092 3.361zm19.894 0l2.859 2.077-1.092 3.36 2.858-2.077 2.859 2.077-1.092-3.361 2.858-2.076h-3.533l-1.092-3.361-1.092 3.361zm19.895 0l2.858 2.077-1.092 3.36 2.859-2.077 2.858 2.077-1.092-3.361 2.859-2.076h-3.533l-1.092-3.361-1.092 3.361zm-89.47 8.455l2.859 2.076-1.092 3.361 2.858-2.077 2.859 2.077-1.092-3.361 2.858-2.076h-3.533l-1.092-3.361-1.092 3.361zm19.895 0l2.858 2.076-1.092 3.361 2.859-2.077 2.858 2.077-1.091-3.361 2.858-2.076h-3.533l-1.092-3.361-1.092 3.361zm19.895 0l2.858 2.076-1.092 3.361 2.859-2.077 2.858 2.077-1.092-3.361 2.859-2.076h-3.533l-1.092-3.361-1.092 3.361zm19.894 0l2.859 2.076-1.092 3.361 2.858-2.077 2.859 2.077-1.092-3.361 2.859-2.076h-3.534l-1.092-3.361-1.091 3.361zm19.895 0l2.858 2.076-1.091 3.361 2.858-2.077 2.859 2.077-1.092-3.361 2.858-2.076h-3.533l-1.092-3.361-1.092 3.361zm19.895 0l2.858 2.076-1.092 3.361 2.859-2.077 2.858 2.077-1.092-3.361 2.859-2.076h-3.533l-1.092-3.361-1.092 3.361zm-99.287 16.782l2.858 2.077-1.092 3.361 2.859-2.077 2.858 2.077-1.092-3.361 2.859-2.077h-3.533l-1.092-3.36-1.092 3.36zm19.894 0l2.859 2.077-1.092 3.361 2.858-2.077 2.859 2.077-1.092-3.361 2.858-2.077h-3.533l-1.092-3.36-1.092 3.36zm19.895 0l2.858 2.077-1.091 3.361 2.858-2.077 2.859 2.077-1.092-3.361 2.858-2.077h-3.533l-1.092-3.36-1.092 3.36zm19.895 0l2.858 2.077-1.092 3.361 2.859-2.077 2.858 2.077-1.091-3.361 2.858-2.077h-3.533l-1.092-3.36-1.092 3.36zm19.894 0l2.859 2.077-1.092 3.361 2.858-2.077 2.859 2.077-1.092-3.361 2.859-2.077h-3.534l-1.092-3.36-1.091 3.36zm19.895 0l2.858 2.077-1.091 3.361 2.858-2.077 2.859 2.077-1.092-3.361 2.858-2.077h-3.533l-1.092-3.36-1.092 3.36zm-99.716 16.98l2.858 2.077-1.092 3.361 2.859-2.077 2.858 2.077-1.092-3.361 2.859-2.077H323.6l-1.091-3.36-1.092 3.36zm19.894 0l2.859 2.077-1.092 3.361 2.858-2.077 2.859 2.077-1.092-3.361 2.858-2.077h-3.533l-1.092-3.36-1.092 3.36zm19.895 0l2.858 2.077-1.091 3.361 2.858-2.077 2.859 2.077-1.092-3.361 2.858-2.077h-3.533l-1.092-3.36-1.092 3.36zm19.895 0l2.858 2.077-1.092 3.361 2.859-2.077 2.858 2.077-1.091-3.361 2.858-2.077h-3.533l-1.092-3.36-1.092 3.36zm19.894 0l2.859 2.077-1.092 3.361 2.858-2.077 2.859 2.077-1.092-3.361 2.859-2.077h-3.534l-1.092-3.36-1.091 3.36zm19.895 0l2.858 2.077-1.091 3.361 2.858-2.077 2.859 2.077-1.092-3.361 2.858-2.077h-3.533l-1.092-3.36-1.092 3.36zm-89.467-25.455l2.858 2.077-1.091 3.36 2.858-2.077 2.859 2.077-1.092-3.36 2.858-2.077h-3.533l-1.092-3.361-1.092 3.361zm19.895 0l2.858 2.077-1.092 3.36 2.859-2.077 2.858 2.077-1.091-3.36 2.858-2.077h-3.533l-1.092-3.361-1.092 3.361zm19.895 0l2.858 2.077-1.092 3.36 2.859-2.077 2.858 2.077-1.092-3.36 2.859-2.077h-3.533l-1.092-3.361-1.092 3.361zm19.894 0l2.859 2.077-1.092 3.36 2.858-2.077 2.859 2.077-1.092-3.36 2.858-2.077h-3.533l-1.092-3.361-1.092 3.361zm19.895 0l2.858 2.077-1.092 3.36 2.859-2.077 2.858 2.077-1.091-3.36 2.858-2.077h-3.533l-1.092-3.361-1.092 3.361zm-79.638 16.953l2.859 2.077-1.092 3.361 2.858-2.077 2.859 2.077-1.092-3.361 2.858-2.077h-3.533l-1.092-3.36-1.092 3.36zm19.895 0l2.858 2.077-1.092 3.361 2.859-2.077 2.859 2.077-1.092-3.361 2.858-2.077h-3.533l-1.092-3.36-1.092 3.36zm19.895 0l2.858 2.077-1.092 3.361 2.859-2.077 2.858 2.077-1.092-3.361 2.859-2.077h-3.533l-1.092-3.36-1.092 3.36zm19.894 0l2.859 2.077-1.092 3.361 2.858-2.077 2.859 2.077-1.092-3.361 2.858-2.077h-3.533l-1.092-3.36-1.092 3.36zm19.895 0l2.858 2.077-1.092 3.361 2.859-2.077 2.858 2.077-1.091-3.361 2.858-2.077h-3.533l-1.092-3.36-1.092 3.36z" fill="#FFF"/></g></switch></svg></svg>